<?xml version="1.0" encoding="utf-8"?>
<!-- Generator: Adobe Illustrator 19.1.1, SVG Export Plug-In . SVG Version: 6.00 Build 0)  -->
<svg version="1.1" id="Layer_1" xmlns="http://www.w3.org/2000/svg" xmlns:xlink="http://www.w3.org/1999/xlink" x="0px" y="0px"
	 viewBox="0 0 16 16" style="enable-background:new 0 0 16 16;" xml:space="preserve">
<style type="text/css">
	.dx_white{fill:#FFFFFF;}
</style>
<path class="dx_white" d="M3,7c-1.7,0-3,1.3-3,3s1.3,3,3,3s3-1.3,3-3S4.7,7,3,7z M4.7,11H4v-1H3V9H2v2H1.3C1.1,10.7,1,10.4,1,10
	c0-1.1,0.9-2,2-2s2,0.9,2,2C5,10.4,4.9,10.7,4.7,11z"/>
<path class="dx_white" d="M11,4c-0.2-2.1-1.9-3.8-4-4v4H11z"/>
<path class="dx_white" d="M6.8,8.7c0.8-1.4,2.3-2.4,4-2.6C10.9,5.7,11,5.4,11,5H6V0C3.8,0.3,2,2.2,2,4.5c0,0.6,0.1,1.1,0.3,1.6
	C2.5,6,2.8,6,3,6C4.8,6,6.2,7.1,6.8,8.7z"/>
<path class="dx_white" d="M11.5,7C9,7,7,9,7,11.5S9,16,11.5,16s4.5-2,4.5-4.5S14,7,11.5,7z M14.9,11h-1c-0.1-1.1-0.7-2.1-1.5-2.8
	C13.8,8.5,14.8,9.6,14.9,11z M13,11h-1V9.1C12.5,9.6,12.9,10.3,13,11z M10,12h1v1.9C10.5,13.4,10.1,12.7,10,12z M10,11
	c0.1-0.7,0.5-1.4,1-1.9V11H10z M10.5,8.2C9.7,8.9,9.2,9.9,9,11h-1C8.2,9.6,9.2,8.5,10.5,8.2z M8.1,12h1c0.1,1.1,0.7,2.1,1.5,2.8
	C9.2,14.5,8.2,13.4,8.1,12z M12,12h1c-0.1,0.7-0.5,1.4-1,1.9V12z M12.5,14.8c0.8-0.7,1.4-1.7,1.5-2.8h1
	C14.8,13.4,13.8,14.5,12.5,14.8z"/>
</svg>
