<?xml version="1.0" encoding="utf-8"?>
<!-- Generator: Adobe Illustrator 19.1.1, SVG Export Plug-In . SVG Version: 6.00 Build 0)  -->
<svg version="1.1" id="Layer_1" xmlns="http://www.w3.org/2000/svg" xmlns:xlink="http://www.w3.org/1999/xlink" x="0px" y="0px"
	 viewBox="0 0 16 16" style="enable-background:new 0 0 16 16;" xml:space="preserve">
<style type="text/css">
	.dx_green{fill:#2D9D54;}
	.dx_darkgray{fill:#787878;}
</style>
<path class="dx_darkgray" d="M3,7c-1.7,0-3,1.3-3,3s1.3,3,3,3s3-1.3,3-3S4.7,7,3,7z M4.7,11H4v-1H3V9H2v2H1.3C1.1,10.7,1,10.4,1,10
	c0-1.1,0.9-2,2-2s2,0.9,2,2C5,10.4,4.9,10.7,4.7,11z"/>
<path class="dx_darkgray" d="M12,4c-0.2-2.1-1.9-3.8-4-4v4H12z"/>
<path class="dx_darkgray" d="M6.8,8.7C7.7,7.1,9.5,6,11.5,6c0.1,0,0.2,0,0.2,0C11.9,5.7,12,5.4,12,5H7V0C4.8,0.3,3,2.2,3,4.5
	C3,5,3.1,5.5,3.3,6C4.9,6.1,6.3,7.2,6.8,8.7z"/>
<path class="dx_green" d="M11.5,7C9,7,7,9,7,11.5S9,16,11.5,16s4.5-2,4.5-4.5S14,7,11.5,7z M13.1,13.5c-0.2,0.3-0.6,0.4-1.1,0.5v1
	h-1v-1c-0.8-0.1-1.4-0.6-1.5-1.3l1.1-0.2c0.1,0.5,0.5,0.7,1,0.7c0.3,0,0.5-0.1,0.6-0.2s0.2-0.2,0.2-0.4c0-0.1-0.1-0.3-0.2-0.3
	s-0.3-0.2-0.7-0.2c-0.7-0.2-1.2-0.4-1.4-0.6c-0.2-0.3-0.3-0.6-0.3-0.9c0-0.4,0.2-0.7,0.4-1C10.4,9.2,10.7,9.1,11,9V8h1v1
	c0.7,0.1,1.2,0.5,1.4,1.1l-1,0.3c-0.1-0.4-0.4-0.6-0.8-0.6c-0.5,0-0.7,0.1-0.7,0.4c0,0.1,0,0.2,0.1,0.3s0.3,0.2,0.6,0.2
	c0.5,0.1,0.9,0.2,1.1,0.3c0.2,0.1,0.4,0.3,0.6,0.5s0.2,0.5,0.2,0.8C13.5,12.8,13.4,13.2,13.1,13.5z"/>
</svg>
