<?xml version="1.0" encoding="utf-8"?>
<!-- Generator: Adobe Illustrator 23.0.1, SVG Export Plug-In . SVG Version: 6.00 Build 0)  -->
<svg version="1.1" id="Layer_1" xmlns="http://www.w3.org/2000/svg" xmlns:xlink="http://www.w3.org/1999/xlink" x="0px" y="0px"
	 viewBox="0 0 92 24" style="enable-background:new 0 0 92 24;" xml:space="preserve">
<style type="text/css">
	.st0{fill:#4A4A4A;}
</style>
<path class="st0" d="M6,11.8L9.2,19H6.5l-2-5l-1.8,5H0l3.2-7.2L0.2,5.1h2.6l1.8,4.6l1.6-4.6H9L6,11.8z M14.8,7.1
	c0.7,0,1.4,0.4,1.9,0.8l0.9-2.1c-1.7-1.2-4.2-1.4-5.8,0.1c-1.6,1.4-2.1,3.9-2.1,6c0,2.1,0.3,4.5,1.8,6.1c1.5,1.5,4,1.6,5.7,0.5v-2.3
	c-2.1,1.3-4.1,0.7-4.6-1.8C12.2,12.5,11.9,7.2,14.8,7.1z M25,12.9l2.7,6.1h-2.8l-2.2-5.4h-0.9V19h-2.6V5.1c1.6,0,3.6-0.3,5.1,0.2
	C27.4,6.3,27.7,11.1,25,12.9L25,12.9z M24.2,9.3c0.2-1.7-1.1-2-2.4-2v4.1C23.2,11.4,24.3,11,24.2,9.3L24.2,9.3z M35.4,16L35.4,16
	L32.9,5.1h-4V19h2.4c0-1.8,0-3.6,0-5.4c0-2.1,0.1-4.3-0.2-6.5h0.1L33.9,19h2.8l2.6-11.8h0.1C39,11,39.3,15.1,39.3,19h2.5V5.1h-4.1
	L35.4,16z M56.5,6.9c2,3,2.2,9-1.1,11.2c-1.8,1.2-4.3,0.8-6.4,0.8V5.1C51.6,5.1,54.8,4.5,56.5,6.9z M55.2,12c0-1.3-0.1-3.1-1.1-4.1
	c-0.7-0.7-1.6-0.6-2.5-0.6v9.4c0.8,0,1.7,0.1,2.4-0.5C55,15.3,55.2,13.3,55.2,12z M66,9.4c1.1,1.5,1,3.1,1,4.9h-5.1
	c-0.1,1,0.3,2.3,1.4,2.7c1,0.4,2.4-0.1,3.2-0.7v2c-1.6,0.9-3.8,1.1-5.3,0c-1.6-1.1-1.9-3.2-1.9-5c0-1.7,0.5-3.8,2.1-4.8
	C62.9,7.8,65,8.1,66,9.4z M64.5,12.5c0-0.8-0.2-2.4-1.3-2.3c-1,0.1-1.2,1.5-1.2,2.3L64.5,12.5z M78.9,8.2c-1.2,0-2.2,0.7-2.6,1.8
	h-0.1c-0.6-2.3-4.1-2.5-5-0.3H71l-0.3-1.4h-2V19h2.5c0-1.4,0-2.8,0-4.3c0-0.7,0-1.5,0.1-2.2c0.1-0.9,0.8-3.1,2.1-1.9
	c0.9,0.8,0.5,3.2,0.5,4.3c0,1.4,0,2.8,0,4.1h2.6c0-1.4,0-2.8,0-4.3c0-0.7,0-1.5,0.1-2.2c0.1-0.9,0.8-3,2.1-1.9
	c0.9,0.8,0.5,3.2,0.5,4.3c0,1.4,0,2.8,0,4.1h2.6c0-1.7,0-3.4,0-5.1C81.8,11.8,82,7.9,78.9,8.2z M91.7,13.6c0.2,2.5-1.2,5.5-4,5.5
	c-3.2,0.1-4.3-3.1-4.3-5.8c0-2.5,1.3-5.2,4.2-5.2C90.4,8.2,91.8,11.1,91.7,13.6z M89.1,13.6c0.1-1.1-0.2-4-2-3.2
	c-1.3,0.6-1.1,3.2-1,4.3c0.1,1,0.7,2.9,2.1,2.1C89.1,16.3,89.1,14.6,89.1,13.6z"/>
</svg>
